HIERARCHY
ROOT Hips
{
	OFFSET 0.000000 0.000000 0.000000
	CHANNELS 6 Xposition Yposition Zposition Xrotation Yrotation Zrotation
	JOINT LeftUpLeg
	{
		OFFSET 0.098683 0.000000 0.000000
		CHANNELS 3 Xrotation Yrotation Zrotation
		JOINT LeftLeg
		{
			OFFSET 0.000000 -0.424685 0.000000
			CHANNELS 3 Xrotation Yrotation Zrotation
			JOINT LeftFoot
			{
				OFFSET 0.000000 -0.416921 0.000000
				CHANNELS 3 Xrotation Yrotation Zrotation
				JOINT LeftToeBase
				{
					OFFSET 0.000000 -0.041518 0.154948
					CHANNELS 3 Xrotation Yrotation Zrotation
					End Site
					{
						OFFSET 0.000000 0.000000 0.079842
					}
				}
			}
		}
	}
	JOINT RightUpLeg
	{
		OFFSET -0.098683 0.000000 0.000000
		CHANNELS 3 Xrotation Yrotation Zrotation
		JOINT RightLeg
		{
			OFFSET 0.000000 -0.424685 0.000000
			CHANNELS 3 Xrotation Yrotation Zrotation
			JOINT RightFoot
			{
				OFFSET 0.000000 -0.416921 0.000000
				CHANNELS 3 Xrotation Yrotation Zrotation
				JOINT RightToeBase
				{
					OFFSET 0.000000 -0.041518 0.154948
					CHANNELS 3 Xrotation Yrotation Zrotation
					End Site
					{
						OFFSET 0.000000 0.000000 0.079842
					}
				}
			}
		}
	}
	JOINT Spine
	{
		OFFSET 0.000000 0.001065 0.000000
		CHANNELS 3 Xrotation Yrotation Zrotation
		JOINT Spine1
		{
			OFFSET 0.000000 0.277114 0.000000
			CHANNELS 3 Xrotation Yrotation Zrotation
			JOINT Neck
			{
				OFFSET 0.000000 0.211639 0.000000
				CHANNELS 3 Xrotation Yrotation Zrotation
				JOINT Head
				{
					OFFSET 0.000000 0.186769 0.000000
					CHANNELS 3 Xrotation Yrotation Zrotation
					End Site
					{
						OFFSET 0.000000 0.122425 0.000000
					}
				}
			}
			JOINT LeftShoulder
			{
				OFFSET 0.000000 0.211639 0.000000
				CHANNELS 3 Xrotation Yrotation Zrotation
				JOINT LeftArm
				{
					OFFSET 0.181443 -0.000001 0.000000
					CHANNELS 3 Xrotation Yrotation Zrotation
					JOINT LeftForeArm
					{
						OFFSET 0.295931 -0.000001 0.000000
						CHANNELS 3 Xrotation Yrotation Zrotation
						JOINT LeftHand
						{
							OFFSET 0.230383 -0.000001 0.000000
							CHANNELS 3 Xrotation Yrotation Zrotation
							JOINT LeftHandThumb
							{
								OFFSET 0.000000 0.000000 0.000000
								CHANNELS 3 Xrotation Yrotation Zrotation
								End Site
								{
									OFFSET 0.000000 0.000000 0.106456
								}
							}
							JOINT L_Wrist_End
							{
								OFFSET 0.106456 -0.000000 0.000000
								CHANNELS 3 Xrotation Yrotation Zrotation
								End Site
								{
									OFFSET 0.000000 0.002704 0.000000
								}
							}
						}
					}
				}
			}
			JOINT RightShoulder
			{
				OFFSET 0.000000 0.211639 0.000000
				CHANNELS 3 Xrotation Yrotation Zrotation
				JOINT RightArm
				{
					OFFSET -0.181443 -0.000001 0.000000
					CHANNELS 3 Xrotation Yrotation Zrotation
					JOINT RightForeArm
					{
						OFFSET -0.295931 -0.000001 0.000000
						CHANNELS 3 Xrotation Yrotation Zrotation
						JOINT RightHand
						{
							OFFSET -0.230383 -0.000001 0.000000
							CHANNELS 3 Xrotation Yrotation Zrotation
							JOINT RightHandThumb
							{
								OFFSET 0.000000 0.000000 0.000000
								CHANNELS 3 Xrotation Yrotation Zrotation
								End Site
								{
									OFFSET 0.000000 0.000000 0.106456
								}
							}
							JOINT R_Wrist_End
							{
								OFFSET -0.145845 -0.000001 0.000000
								CHANNELS 3 Xrotation Yrotation Zrotation
								End Site
								{
									OFFSET 0.000000 0.002704 0.000000
								}
							}
						}
					}
				}
			}
		}
	}
}
MOTION
Frames: 5
Frame Time: 0.008333
1.166132 0.876607 1.604640 0.729865 -224.830826 -5.475847 -3.763500 -2.585602 7.716001 60.759198 0.000002 -0.000002 1.519403 -8.338903 -5.514796 -6.251601 -0.000006 0.000003 -10.744301 -3.939702 2.858600 14.083799 -0.000001 -0.000000 -14.254698 -0.144103 0.804499 2.571701 -0.000003 0.000000 -3.668800 2.671799 2.004400 8.921000 1.246498 3.030800 -0.114199 5.061203 -6.798500 -4.406599 6.188799 2.880400 20.092601 10.653902 -5.213601 -23.162705 -44.046394 -74.904205 -0.000100 -20.147497 0.000002 -10.778903 -0.831398 -13.526104 0.000001 -0.000001 0.000000 0.000001 -0.000001 -0.000001 14.250101 -15.187598 4.737300 -10.250002 33.073688 71.529006 -0.000000 10.849598 -0.000001 -24.874302 -5.226503 11.163702 0.000000 -0.000000 -0.000000 0.000000 -0.000000 0.000000 
1.173290 0.877445 1.600984 0.698556 -224.642121 -5.481034 -5.349500 -2.562896 7.672200 63.217697 0.000001 0.000001 2.143801 -7.291400 -5.278696 0.914599 -0.000000 0.000001 -9.976599 -4.759001 2.936200 13.737099 -0.000001 -0.000001 -14.612901 0.424900 1.299400 2.550198 -0.000000 -0.000000 -3.641101 2.823400 2.025000 8.932001 1.397101 3.026601 -0.122300 5.155601 -6.753400 -4.307900 6.276904 2.839600 20.266701 10.595200 -5.342499 -22.680202 -44.102494 -74.455510 -0.000097 -19.544593 0.000001 -10.884804 -0.773999 -13.544299 0.000001 0.000000 0.000000 0.000001 -0.000001 0.000000 14.215400 -15.027798 4.801099 -10.568106 32.969098 70.980009 0.000001 11.502798 0.000003 -24.639901 -5.407900 11.287601 -0.000002 0.000000 -0.000000 -0.000004 0.000000 -0.000000 
1.179947 0.878140 1.597696 0.597665 -224.286023 -5.495546 -7.079502 -2.699600 7.615201 65.647298 0.000001 -0.000002 2.378801 -6.465301 -4.277698 7.504202 0.000000 0.000001 -9.315201 -5.724303 3.070900 13.490602 -0.000001 -0.000000 -14.991198 0.877499 1.342800 2.574200 -0.000001 0.000001 -3.620400 2.858198 2.094200 9.028001 1.433697 3.056300 -0.125200 5.242300 -6.724901 -4.454900 6.390904 2.723201 20.306798 10.570901 -5.422301 -22.246003 -44.152802 -74.118010 -0.000098 -18.872796 0.000000 -10.852802 -0.725297 -13.633400 0.000002 0.000000 -0.000001 0.000002 -0.000001 -0.000001 14.166200 -14.979399 4.856899 -11.125602 33.207898 70.486910 0.000000 11.873998 0.000002 -24.834303 -5.259701 11.292501 0.000004 -0.000000 -0.000000 0.000002 -0.000000 -0.000000 
1.186645 0.878873 1.594030 0.511300 -224.091021 -5.441886 -8.642000 -2.621403 7.485898 67.697502 0.000001 -0.000001 2.012008 -5.828901 -2.953694 9.797898 -0.000000 0.000004 -8.641900 -6.691002 3.119700 13.227902 -0.000002 0.000000 -15.363302 1.531003 1.603101 2.523300 -0.000003 0.000001 -3.603499 2.993495 2.111900 9.028900 1.567901 3.050900 -0.120100 5.315602 -6.695000 -4.391400 6.479701 2.680600 20.470999 10.630699 -5.569702 -21.920903 -44.217798 -73.777607 -0.000099 -18.102696 0.000001 -9.757198 -0.572597 -14.438999 -0.000000 0.000001 0.000000 -0.000000 0.000001 -0.000000 14.164600 -14.846200 4.940100 -11.564904 33.187493 69.914807 0.000001 12.370798 0.000002 -24.912898 -5.166301 11.170301 -0.000003 0.000001 0.000000 -0.000003 0.000000 -0.000000 
1.192994 0.879590 1.590696 0.369074 -223.838331 -5.353664 -10.290804 -2.678701 7.304501 69.636599 0.000001 -0.000002 1.094804 -5.011800 -2.098599 8.901202 0.000001 0.000005 -7.983402 -7.276303 3.224000 12.831304 -0.000002 -0.000000 -15.655897 1.772699 1.808899 2.495900 -0.000007 0.000000 -3.568100 3.059097 2.128400 9.057501 1.630695 3.049400 -0.122800 5.412004 -6.671902 -4.501599 6.606696 2.574000 20.562699 10.656400 -5.710500 -21.427704 -44.299996 -73.362106 -0.000101 -17.526496 0.000000 -9.686900 -0.562801 -14.384899 -0.000003 -0.000000 0.000000 -0.000001 -0.000000 0.000000 14.186096 -14.765696 5.068000 -12.200406 33.325299 69.365113 0.000000 12.725798 0.000002 -25.265705 -4.840500 10.879199 -0.000004 0.000000 0.000000 -0.000003 0.000000 -0.000000 
